<svg id="Modo_de_aislamiento" data-name="Modo de aislamiento" xmlns="http://www.w3.org/2000/svg" viewBox="0 0 387.63 124.84"><defs><style>.cls-1{fill:#fff;}</style></defs><title>vidt</title><polygon class="cls-1" points="202.96 9.37 222.44 9.37 206.84 84.16 187.36 84.16 202.96 9.37"/><path class="cls-1" d="M1444.84,318.16h28.07c19.17,0,33.31,8.59,33.31,31.64,0,23.25-14.14,43.16-43.79,43.16H1429Zm7.23,58h12.88c16.86,0,21.79-15.08,21.79-24.82,0-12.15-5.76-16.45-14.77-16.45h-11.21Z" transform="translate(-1198.2 -308.8)"/><polygon class="cls-1" points="384.28 26.13 362.28 26.13 350.02 84.16 330.54 84.16 342.8 26.13 320.8 26.13 324.15 9.37 387.63 9.37 384.28 26.13"/><path class="cls-1" d="M1312.05,404.91c2.13,0,5.46.79,5.46,5.19s-2.54,7.59-6.94,7.59c-3.42,0-5.39-2-5.39-5.43,0-4.07,2.64-7.35,6.87-7.35m-1.22,10.15c2.3,0,3.49-2.75,3.49-4.69s-.65-2.83-2.37-2.83c-2.47,0-3.57,2.71-3.57,4.74,0,1.58.76,2.78,2.46,2.78" transform="translate(-1198.2 -308.8)"/><polygon class="cls-1" points="125.84 96.37 129.12 96.37 131.99 104.39 132.03 104.39 133.56 96.37 136.65 96.37 134.09 108.64 130.81 108.64 127.97 100.61 127.94 100.61 126.38 108.64 123.28 108.64 125.84 96.37"/><path class="cls-1" d="M1347.4,409.58c.14-1.13-.48-2-2-2-2.42,0-3.33,2.8-3.33,4.74,0,1.58.46,2.78,2.27,2.78a2.6,2.6,0,0,0,2.6-2.16h3.19c-.69,3.14-2.66,4.79-6.23,4.79-1.94,0-5-1-5-5.53,0-4,2.42-7.25,6.58-7.25,3.07,0,5.15,1.44,5.12,4.67Z" transform="translate(-1198.2 -308.8)"/><path class="cls-1" d="M1362.2,404.91c2.13,0,5.46.79,5.46,5.19s-2.54,7.59-6.94,7.59c-3.42,0-5.39-2-5.39-5.43,0-4.07,2.65-7.35,6.87-7.35M1361,415.06c2.3,0,3.49-2.75,3.49-4.69s-.65-2.83-2.37-2.83c-2.47,0-3.57,2.71-3.57,4.74,0,1.58.76,2.78,2.46,2.78" transform="translate(-1198.2 -308.8)"/><polygon class="cls-1" points="176.13 96.37 179.33 96.37 177.33 105.89 183.07 105.89 182.49 108.64 173.57 108.64 176.13 96.37"/><path class="cls-1" d="M1393.31,404.91c2.13,0,5.46.79,5.46,5.19s-2.54,7.59-6.94,7.59c-3.42,0-5.39-2-5.39-5.43,0-4.07,2.65-7.35,6.87-7.35m-1.22,10.15c2.3,0,3.49-2.75,3.49-4.69s-.65-2.83-2.37-2.83c-2.47,0-3.57,2.71-3.57,4.74,0,1.58.76,2.78,2.46,2.78" transform="translate(-1198.2 -308.8)"/><path class="cls-1" d="M1412.58,409.34a1.82,1.82,0,0,0-2-1.8c-2.6,0-3.68,2.61-3.68,4.81,0,1.73.84,2.71,2.49,2.71a2.54,2.54,0,0,0,2.82-2h-2.25l.5-2.37h5.1l-1.43,6.72h-2l.07-1.24h0c-.74,1-1.58,1.49-3.56,1.49-2.34,0-4.86-1.22-4.86-5.34,0-.93.46-7.44,6.92-7.44,3.09,0,5.1,1.39,5,4.43Z" transform="translate(-1198.2 -308.8)"/><polygon class="cls-1" points="224.38 96.37 227.57 96.37 225.01 108.64 221.82 108.64 224.38 96.37"/><path class="cls-1" d="M1435.18,405.17h3.23l2,12.27h-3.21l-.29-2.2h-4.31l-1.24,2.2H1428Zm-1.34,7.7h2.8l-.46-4.42h0Z" transform="translate(-1198.2 -308.8)"/><path class="cls-1" d="M1456.68,405.17h6c2.23,0,3.93.57,3.93,3.18a3.09,3.09,0,0,1-2.8,3.42v0c.91.22,1.25.86,1.25,2,0,.89-.05,1.58-.05,2.29a2.9,2.9,0,0,0,.19,1.3H1462a3.34,3.34,0,0,1-.1-.7c0-.64.09-1.29.09-2.11,0-1.08-.46-1.65-1.6-1.65h-2.13l-.93,4.47h-3.2Zm2.06,5.43h2.54c1.15,0,2.15-.36,2.15-1.68,0-1-.87-1.27-1.72-1.27h-2.35Z" transform="translate(-1198.2 -308.8)"/><path class="cls-1" d="M1476.42,405.17h3.23l2,12.27h-3.21l-.29-2.2h-4.31l-1.24,2.2h-3.35Zm-1.34,7.7h2.8l-.46-4.42h0Z" transform="translate(-1198.2 -308.8)"/><path class="cls-1" d="M1488.9,405.17h4.6c3.14,0,5.46,1.41,5.46,5.19s-2.32,7.08-7.18,7.08h-5.48Zm1.19,9.52h2.11c2.77,0,3.57-2.47,3.57-4.07,0-2-.95-2.7-2.42-2.7h-1.84Z" transform="translate(-1198.2 -308.8)"/><polygon class="cls-1" points="307.49 96.37 310.68 96.37 308.12 108.64 304.93 108.64 307.49 96.37"/><path class="cls-1" d="M1518.29,405.17h3.23l2,12.27h-3.21l-.29-2.2h-4.31l-1.24,2.2h-3.35Zm-1.34,7.7h2.8l-.46-4.42h0Z" transform="translate(-1198.2 -308.8)"/><polygon class="cls-1" points="332.41 96.37 335.69 96.37 338.56 104.39 338.59 104.39 340.12 96.37 343.21 96.37 340.65 108.64 337.37 108.64 334.54 100.61 334.5 100.61 332.94 108.64 329.85 108.64 332.41 96.37"/><polygon class="cls-1" points="357.93 99.12 354.32 99.12 352.31 108.64 349.12 108.64 351.13 99.12 347.52 99.12 348.07 96.37 358.48 96.37 357.93 99.12"/><polygon class="cls-1" points="363.63 96.37 373.42 96.37 372.84 99.12 366.24 99.12 365.85 101.08 371.93 101.08 371.41 103.55 365.33 103.55 364.85 105.89 371.5 105.89 370.91 108.64 361.09 108.64 363.63 96.37"/><path class="cls-1" d="M1324.2,386.81c1.12-4.33.14-11.32-10.62-20-7.69-6.15-19.15-12-32.15-16.5a2.87,2.87,0,0,0-.83-.12,2.59,2.59,0,0,0-2.53,1.8,2.66,2.66,0,0,0,1.68,3.36c12.44,4.33,23.35,9.78,30.47,15.66,6.71,5.45,9.79,10.62,8.81,14.54-.84,3.36-4.75,6.15-11,7.83a2.68,2.68,0,0,0-1.82,3.35,2.53,2.53,0,0,0,2.52,2,1.26,1.26,0,0,0,.7-.14c5.87-1.54,13.14-4.89,14.82-11.74" transform="translate(-1198.2 -308.8)"/><path class="cls-1" d="M1364.29,318.16l-25.14,55.41h-.21l-3-55.41h-19.59l5.43,53.87c5.05,6.34,5.34,11.61,4.4,15.25a13.77,13.77,0,0,1-2.37,5l.07.71h22.21l38.76-74.79Z" transform="translate(-1198.2 -308.8)"/><path class="cls-1" d="M1203.56,356.61c.56-2.24,2.38-4.19,5.59-5.73a43.77,43.77,0,0,1,13.84-3.64,2.67,2.67,0,1,0-.56-5.31c-6.43.7-11.6,2.09-15.66,4.19-4.61,2.38-7.41,5.45-8.25,9.22-1.68,7,3.35,13.42,8,17.76a2.94,2.94,0,0,0,1.82.7,2.76,2.76,0,0,0,2-.84,2.66,2.66,0,0,0-.14-3.78c-3.08-2.66-7.69-7.83-6.57-12.58" transform="translate(-1198.2 -308.8)"/><path class="cls-1" d="M1285.9,363.46a2.7,2.7,0,0,0-5.17,1.54c.28,1,.56,2,1,3.08,4.33,15,6.29,29.64,5.59,41.1-.7,10.48-3.64,17.33-8.25,18.73-2.24.7-4.89.14-7.83-1.68-3.21-2-6.71-5.45-10.2-9.93-7.41-9.64-14.26-23.48-19.15-39.14-1.12-3.64-2.1-7.41-3.08-10.9,2.24-2.94,4.75-5.87,7.27-8.67,10.91-12.16,22.79-21.95,33.69-27.54,5-2.66,9.64-4.33,13.42-4.75,3.5-.42,6.15.14,7.83,1.68s2.52,4.05,2.52,7.55c0,3.78-1.12,8.53-3.21,13.84a2.7,2.7,0,0,0,5,2c2.38-6,3.63-11.32,3.63-15.8,0-5.17-1.4-9.09-4.33-11.6s-7-3.64-12-3.08a46.28,46.28,0,0,0-15.24,5.31c-11.32,6-23.91,16.22-35.09,28.8-1.68,1.82-3.21,3.64-4.75,5.59a110.33,110.33,0,0,1-2.1-25.3,40.45,40.45,0,0,1,2.8-14q2.1-4.82,5.45-5.87c4.61-1.4,9.93,2.94,12.86,5.73a2.67,2.67,0,0,0,3.64-3.91c-8.11-7.83-14.4-8.11-18.17-6.85s-6.71,4.19-8.81,8.81A44.39,44.39,0,0,0,1230,334a119.58,119.58,0,0,0,3.08,31c-7,9.23-12.44,18.45-15.8,27-2.38,6-3.63,11.32-3.63,15.8,0,5.17,1.4,9.09,4.33,11.6,1.82,1.68,4.75,3.22,9.36,3.22a30.65,30.65,0,0,0,10.48-2.1,2.74,2.74,0,0,0-1.82-5.17c-6.57,2.38-11.74,2.38-14.4,0q-2.51-2.31-2.52-7.55c0-3.77,1.12-8.53,3.21-13.84a105,105,0,0,1,12.44-22.09,66.48,66.48,0,0,0,2.1,7c5,16.08,12.16,30.61,20,40.82,3.91,5,7.83,8.81,11.74,11.18a17.44,17.44,0,0,0,8.67,2.8,9.61,9.61,0,0,0,3.49-.56c3.64-1.12,6.57-3.91,8.53-8.39q2.73-5.87,3.36-15.1c.84-12.16-1.26-27.4-5.73-42.92-.42-1.12-.7-2.24-1-3.22" transform="translate(-1198.2 -308.8)"/><path class="cls-1" d="M1251.79,370.87a2.38,2.38,0,1,1-2.38,2.38,2.38,2.38,0,0,1,2.38-2.37" transform="translate(-1198.2 -308.8)"/><path class="cls-1" d="M1265.91,360.94a2.66,2.66,0,1,1-2.66,2.66,2.66,2.66,0,0,1,2.66-2.66" transform="translate(-1198.2 -308.8)"/><path class="cls-1" d="M1265.91,376A3.91,3.91,0,1,1,1262,380a3.91,3.91,0,0,1,3.91-3.91" transform="translate(-1198.2 -308.8)"/></svg>