<?xml version="1.0" encoding="utf-8"?>
<!-- Generator: Adobe Illustrator 22.1.0, SVG Export Plug-In . SVG Version: 6.00 Build 0)  -->
<svg version="1.1" id="Modo_de_aislamiento" xmlns="http://www.w3.org/2000/svg" xmlns:xlink="http://www.w3.org/1999/xlink"
	 x="0px" y="0px" viewBox="0 0 387.6 124.8" style="enable-background:new 0 0 387.6 124.8;" xml:space="preserve">
<style type="text/css">
	.st0{fill:#A21F35;}
</style>
<title>vidt</title>
<polygon class="st0" points="203,9.4 222.4,9.4 206.8,84.2 187.4,84.2 "/>
<path class="st0" d="M246.6,9.4h28.1C293.9,9.4,308,18,308,41c0,23.3-14.1,43.2-43.8,43.2h-33.4L246.6,9.4z M253.9,67.4h12.9
	c16.9,0,21.8-15.1,21.8-24.8c0-12.1-5.8-16.5-14.8-16.5h-11.2L253.9,67.4z"/>
<polygon class="st0" points="384.3,26.1 362.3,26.1 350,84.2 330.5,84.2 342.8,26.1 320.8,26.1 324.1,9.4 387.6,9.4 "/>
<path class="st0" d="M113.9,96.1c2.1,0,5.5,0.8,5.5,5.2s-2.5,7.6-6.9,7.6c-3.4,0-5.4-2-5.4-5.4C107,99.4,109.6,96.1,113.9,96.1
	 M112.6,106.3c2.3,0,3.5-2.8,3.5-4.7s-0.7-2.8-2.4-2.8c-2.5,0-3.6,2.7-3.6,4.7C110.2,105.1,110.9,106.3,112.6,106.3"/>
<polygon class="st0" points="125.8,96.4 129.1,96.4 132,104.4 132,104.4 133.6,96.4 136.6,96.4 134.1,108.6 130.8,108.6 128,100.6 
	127.9,100.6 126.4,108.6 123.3,108.6 "/>
<path class="st0" d="M149.2,100.8c0.1-1.1-0.5-2-2-2c-2.4,0-3.3,2.8-3.3,4.7c0,1.6,0.5,2.8,2.3,2.8c1.3,0,2.4-0.9,2.6-2.2h3.2
	c-0.7,3.1-2.7,4.8-6.2,4.8c-1.9,0-5-1-5-5.5c0-4,2.4-7.3,6.6-7.3c3.1,0,5.2,1.4,5.1,4.7L149.2,100.8z"/>
<path class="st0" d="M164,96.1c2.1,0,5.5,0.8,5.5,5.2s-2.5,7.6-6.9,7.6c-3.4,0-5.4-2-5.4-5.4C157.1,99.4,159.8,96.1,164,96.1
	 M162.8,106.3c2.3,0,3.5-2.8,3.5-4.7s-0.7-2.8-2.4-2.8c-2.5,0-3.6,2.7-3.6,4.7C160.4,105.1,161.1,106.3,162.8,106.3"/>
<polygon class="st0" points="176.1,96.4 179.3,96.4 177.3,105.9 183.1,105.9 182.5,108.6 173.6,108.6 "/>
<path class="st0" d="M195.1,96.1c2.1,0,5.5,0.8,5.5,5.2s-2.5,7.6-6.9,7.6c-3.4,0-5.4-2-5.4-5.4C188.2,99.4,190.9,96.1,195.1,96.1
	 M193.9,106.3c2.3,0,3.5-2.8,3.5-4.7s-0.7-2.8-2.4-2.8c-2.5,0-3.6,2.7-3.6,4.7C191.4,105.1,192.2,106.3,193.9,106.3"/>
<path class="st0" d="M214.4,100.5c0-1-0.8-1.8-1.8-1.8c-0.1,0-0.1,0-0.2,0c-2.6,0-3.7,2.6-3.7,4.8c0,1.7,0.8,2.7,2.5,2.7
	c1.3,0.2,2.5-0.7,2.8-2h-2.3l0.5-2.4h5.1l-1.4,6.7h-2l0.1-1.2l0,0c-0.7,1-1.6,1.5-3.6,1.5c-2.3,0-4.9-1.2-4.9-5.3
	c0-0.9,0.5-7.4,6.9-7.4c3.1,0,5.1,1.4,5,4.4L214.4,100.5z"/>
<polygon class="st0" points="224.4,96.4 227.6,96.4 225,108.6 221.8,108.6 "/>
<path class="st0" d="M237,96.4h3.2l2,12.3H239l-0.3-2.2h-4.3l-1.2,2.2h-3.4L237,96.4z M235.6,104.1h2.8l-0.5-4.4l0,0L235.6,104.1z"
	/>
<path class="st0" d="M258.5,96.4h6c2.2,0,3.9,0.6,3.9,3.2c0.2,1.7-1,3.2-2.7,3.4c0,0,0,0-0.1,0l0,0c0.9,0.2,1.3,0.9,1.3,2
	c0,0.9-0.1,1.6-0.1,2.3c0,0.4,0,0.9,0.2,1.3h-3.2c-0.1-0.2-0.1-0.5-0.1-0.7c0-0.6,0.1-1.3,0.1-2.1c0-1.1-0.5-1.6-1.6-1.6h-2.1
	l-0.9,4.5h-3.2L258.5,96.4z M260.5,101.8h2.5c1.2,0,2.2-0.4,2.2-1.7c0-1-0.9-1.3-1.7-1.3h-2.3L260.5,101.8z"/>
<path class="st0" d="M278.2,96.4h3.2l2,12.3h-3.2l-0.3-2.2h-4.3l-1.2,2.2h-3.3L278.2,96.4z M276.9,104.1h2.8l-0.5-4.4l0,0
	L276.9,104.1z"/>
<path class="st0" d="M290.7,96.4h4.6c3.1,0,5.5,1.4,5.5,5.2s-2.3,7.1-7.2,7.1h-5.5L290.7,96.4z M291.9,105.9h2.1
	c2.8,0,3.6-2.5,3.6-4.1c0-2-0.9-2.7-2.4-2.7h-1.8L291.9,105.9z"/>
<polygon class="st0" points="307.5,96.4 310.7,96.4 308.1,108.6 304.9,108.6 "/>
<path class="st0" d="M320.1,96.4h3.2l2,12.3h-3.2l-0.3-2.2h-4.3l-1.2,2.2h-3.3L320.1,96.4z M318.8,104.1h2.8l-0.5-4.4l0,0
	L318.8,104.1z"/>
<polygon class="st0" points="332.4,96.4 335.7,96.4 338.6,104.4 338.6,104.4 340.1,96.4 343.2,96.4 340.6,108.6 337.4,108.6 
	334.5,100.6 334.5,100.6 332.9,108.6 329.9,108.6 "/>
<polygon class="st0" points="357.9,99.1 354.3,99.1 352.3,108.6 349.1,108.6 351.1,99.1 347.5,99.1 348.1,96.4 358.5,96.4 "/>
<polygon class="st0" points="363.6,96.4 373.4,96.4 372.8,99.1 366.2,99.1 365.9,101.1 371.9,101.1 371.4,103.6 365.3,103.6 
	364.9,105.9 371.5,105.9 370.9,108.6 361.1,108.6 "/>
<path class="st0" d="M126,78c1.1-4.3,0.1-11.3-10.6-20c-7.7-6.1-19.2-12-32.2-16.5c-0.3-0.1-0.5-0.1-0.8-0.1c-1.1,0-2.2,0.7-2.5,1.8
	c-0.5,1.4,0.3,2.9,1.7,3.4c12.4,4.3,23.3,9.8,30.5,15.7c6.7,5.5,9.8,10.6,8.8,14.5c-0.8,3.4-4.8,6.1-11,7.8
	c-1.4,0.4-2.2,1.9-1.8,3.3c0,0,0,0,0,0c0.3,1.2,1.3,2,2.5,2c0.2,0,0.5,0,0.7-0.1C117.1,88.2,124.4,84.9,126,78"/>
<path class="st0" d="M166.1,9.4L141,64.8h-0.2l-3-55.4h-19.6l5.4,53.9c5.1,6.3,5.3,11.6,4.4,15.3c-0.4,1.8-1.2,3.5-2.4,5l0.1,0.7
	h22.2l38.8-74.8L166.1,9.4z"/>
<path class="st0" d="M5.4,47.8c0.6-2.2,2.4-4.2,5.6-5.7c4.4-2,9.1-3.2,13.8-3.6c1.5-0.1,2.6-1.4,2.4-2.9c-0.1-1.5-1.4-2.6-2.9-2.4
	c0,0-0.1,0-0.1,0c-6.4,0.7-11.6,2.1-15.7,4.2c-4.6,2.4-7.4,5.5-8.3,9.2c-1.7,7,3.3,13.4,8,17.8c0.5,0.4,1.2,0.7,1.8,0.7
	c0.8,0,1.5-0.3,2-0.8c1-1.1,1-2.8-0.1-3.8c0,0,0,0,0,0C8.9,57.7,4.3,52.6,5.4,47.8"/>
<path class="st0" d="M87.7,54.7c-0.5-1.4-2-2.2-3.4-1.7c-1.3,0.5-2.1,1.8-1.7,3.2c0.3,1,0.6,2,1,3.1c4.3,15,6.3,29.6,5.6,41.1
	c-0.7,10.5-3.6,17.3-8.3,18.7c-2.2,0.7-4.9,0.1-7.8-1.7c-3.2-2-6.7-5.5-10.2-9.9C55.4,97.9,48.6,84,43.7,68.4
	c-1.1-3.6-2.1-7.4-3.1-10.9c2.2-2.9,4.8-5.9,7.3-8.7c10.9-12.2,22.8-22,33.7-27.5c5-2.7,9.6-4.3,13.4-4.8c3.5-0.4,6.2,0.1,7.8,1.7
	s2.5,4,2.5,7.5c0,3.8-1.1,8.5-3.2,13.8c-0.4,1.4,0.3,2.9,1.8,3.4c1.3,0.4,2.7-0.2,3.2-1.4c2.4-6,3.6-11.3,3.6-15.8
	c0-5.2-1.4-9.1-4.3-11.6s-7-3.6-12-3.1c-5.4,0.9-10.5,2.7-15.2,5.3c-11.3,6-23.9,16.2-35.1,28.8c-1.7,1.8-3.2,3.6-4.8,5.6
	C37.7,42.5,37,34,37.3,25.5c0.1-4.8,1-9.5,2.8-14c1.4-3.2,3.2-5.2,5.4-5.9c4.6-1.4,9.9,2.9,12.9,5.7c1.1,1,2.8,0.9,3.8-0.1
	c1-1.1,0.9-2.8-0.1-3.8c-8.1-7.8-14.4-8.1-18.2-6.9S37.1,4.8,35,9.4c-2,5-3.1,10.4-3.2,15.8c-0.3,10.4,0.7,20.8,3.1,31
	c-7,9.2-12.4,18.5-15.8,27c-2.4,6-3.6,11.3-3.6,15.8c0,5.2,1.4,9.1,4.3,11.6c1.8,1.7,4.8,3.2,9.4,3.2c3.6-0.1,7.1-0.8,10.5-2.1
	c1.4-0.5,2.2-2.1,1.7-3.5c-0.5-1.4-2.1-2.2-3.5-1.7l0,0c-6.6,2.4-11.7,2.4-14.4,0c-1.7-1.5-2.5-4.1-2.5-7.5c0-3.8,1.1-8.5,3.2-13.8
	c3.2-7.8,7.4-15.3,12.4-22.1c0.6,2.4,1.3,4.7,2.1,7c5,16.1,12.2,30.6,20,40.8c3.9,5,7.8,8.8,11.7,11.2c2.6,1.7,5.6,2.7,8.7,2.8
	c1.2,0,2.4-0.2,3.5-0.6c3.6-1.1,6.6-3.9,8.5-8.4c1.8-3.9,2.9-8.9,3.4-15.1c0.8-12.2-1.3-27.4-5.7-42.9C88.3,56.8,88,55.7,87.7,54.7"
	/>
<path class="st0" d="M53.6,62.1c1.3,0,2.4,1.1,2.4,2.4s-1.1,2.4-2.4,2.4s-2.4-1.1-2.4-2.4C51.2,63.1,52.3,62.1,53.6,62.1"/>
<path class="st0" d="M67.7,52.1c1.5,0,2.7,1.2,2.7,2.7c0,1.5-1.2,2.7-2.7,2.7c-1.5,0-2.7-1.2-2.7-2.7C65.1,53.3,66.2,52.1,67.7,52.1
	L67.7,52.1"/>
<path class="st0" d="M67.7,67.2c2.2,0,3.9,1.8,3.9,3.9S69.9,75,67.7,75c-2.1,0-3.9-1.7-3.9-3.8C63.8,69,65.6,67.3,67.7,67.2
	L67.7,67.2"/>
</svg>
